HIERARCHY
ROOT Hips
{
	OFFSET -0.001795 -0.223333 0.028219
	CHANNELS 6 Xposition Yposition Zposition Zrotation Yrotation Xrotation 
	JOINT LeftUpLeg
	{
		OFFSET 0.069520 -0.091406 -0.006815
		CHANNELS 3 Zrotation Yrotation Xrotation
		JOINT LeftLeg
		{
			OFFSET 0.034277 -0.375199 -0.004496
			CHANNELS 3 Zrotation Yrotation Xrotation
			JOINT LeftFoot
			{
				OFFSET -0.013596 -0.397961 -0.043693
				CHANNELS 3 Zrotation Yrotation Xrotation
				JOINT LeftToe
				{
					OFFSET 0.026358 -0.055791 0.119288
					CHANNELS 3 Zrotation Yrotation Xrotation
					End Site
					{
						OFFSET 0.000000 0.000000 0.000000
					}
				}
			}
		}
	}
	JOINT RightUpLeg
	{
		OFFSET -0.067670 -0.090522 -0.004320
		CHANNELS 3 Zrotation Yrotation Xrotation
		JOINT RightLeg
		{
			OFFSET -0.038290 -0.382569 -0.008850
			CHANNELS 3 Zrotation Yrotation Xrotation
			JOINT RightFoot
			{
				OFFSET 0.015774 -0.398415 -0.042312
				CHANNELS 3 Zrotation Yrotation Xrotation
				JOINT RightToe
				{
					OFFSET -0.025372 -0.048144 0.123348
					CHANNELS 3 Zrotation Yrotation Xrotation
					End Site
					{
						OFFSET 0.000000 0.000000 0.000000
					}
				}
			}
		}
	}
	JOINT Spine
	{
		OFFSET -0.002533 0.108963 -0.026696
		CHANNELS 3 Zrotation Yrotation Xrotation
		JOINT Spine1
		{
			OFFSET 0.005487 0.135180 0.001092
			CHANNELS 3 Zrotation Yrotation Xrotation
			JOINT Spine2
			{
				OFFSET 0.001457 0.052922 0.025425
				CHANNELS 3 Zrotation Yrotation Xrotation
				JOINT Neck
				{
					OFFSET -0.002778 0.213870 -0.042857
					CHANNELS 3 Zrotation Yrotation Xrotation
					JOINT Head
					{
						OFFSET 0.005152 0.064970 0.051349
						CHANNELS 3 Zrotation Yrotation Xrotation
						End Site
						{
							OFFSET 0.000000 0.000000 0.000000
						}
					}
				}
				JOINT LeftShoulder
				{
					OFFSET 0.078845 0.121749 -0.034090
					CHANNELS 3 Zrotation Yrotation Xrotation
					JOINT LeftArm
					{
						OFFSET 0.090977 0.030469 -0.008868
						CHANNELS 3 Zrotation Yrotation Xrotation
						JOINT LeftForeArm
						{
							OFFSET 0.259612 -0.012772 -0.027456
							CHANNELS 3 Zrotation Yrotation Xrotation
							JOINT LeftHand
							{
								OFFSET 0.249234 0.008986 -0.001171
								CHANNELS 3 Zrotation Yrotation Xrotation
								End Site
								{
									OFFSET 0.000000 0.000000 0.000000
								}
							}
						}
					}
				}
				JOINT RightShoulder
				{
					OFFSET -0.081759 0.118833 -0.038615
					CHANNELS 3 Zrotation Yrotation Xrotation
					JOINT RightArm
					{
						OFFSET -0.096012 0.032551 -0.009143
						CHANNELS 3 Zrotation Yrotation Xrotation
						JOINT RightForeArm
						{
							OFFSET -0.253742 -0.013329 -0.021401
							CHANNELS 3 Zrotation Yrotation Xrotation
							JOINT RightHand
							{
								OFFSET -0.255298 0.007772 -0.005559
								CHANNELS 3 Zrotation Yrotation Xrotation
								End Site
								{
									OFFSET 0.000000 0.000000 0.000000
								}
							}
						}
					}
				}
			}
		}
	}
}
MOTION
Frames: 18
Frame Time: 0.050000
0.000000 0.923780 0.000000 -0.745381 -6.117024 -6.156415 5.378525 0.147296 1.034507 -6.977955 1.210951 8.862795 5.949361 12.521476 -0.592690 0.000000 0.000000 0.000000 -6.976176 0.092815 2.386191 3.823252 -0.211688 10.259514 -5.664040 -13.731042 0.041039 0.000000 0.000000 0.000000 3.453055 -0.950952 15.834526 -4.513487 1.643845 -22.803280 -1.128578 7.318201 23.036027 6.566493 -1.005001 -30.035474 0.000000 0.000000 0.000000 -25.045329 -12.259027 4.471771 -44.211585 -7.364212 -4.079787 -11.417729 -24.508545 3.385585 0.000000 0.000000 0.000000 30.034185 5.519621 3.130528 47.837002 8.122309 -3.953124 12.826457 26.079333 3.997940 0.000000 0.000000 0.000000 
0.010004 0.924027 0.004104 0.021891 -7.624983 -6.876266 4.522833 0.271808 2.816262 -7.023223 1.191915 7.029956 5.952670 12.757223 0.767539 0.000000 0.000000 0.000000 -8.261752 0.169344 3.409329 3.781066 -0.190546 9.493685 -5.523930 -13.560032 0.953884 0.000000 0.000000 0.000000 3.093859 -0.904990 16.853367 -5.408717 1.848609 -23.361987 -1.549390 8.303887 22.380071 7.679112 -1.417977 -31.147677 0.000000 0.000000 0.000000 -23.877415 -12.430792 4.509020 -44.124514 -6.717803 -4.260678 -12.009414 -24.411151 3.478253 0.000000 0.000000 0.000000 30.537445 5.614751 3.195570 47.854529 7.430021 -4.182338 13.236023 25.108975 3.898050 0.000000 0.000000 0.000000 
0.019136 0.922951 0.007249 0.300949 -7.771239 -6.440906 4.356905 0.215746 1.950486 -6.790680 1.173518 7.582464 6.027296 12.879815 0.438247 0.000000 0.000000 0.000000 -8.821466 0.222404 3.193610 3.883642 -0.200498 9.659597 -5.749571 -13.851032 0.176781 0.000000 0.000000 0.000000 2.634525 -0.796953 15.735163 -5.101546 1.771256 -22.385090 -1.742949 8.145194 22.396091 8.128578 -1.705440 -31.104912 0.000000 0.000000 0.000000 -24.031701 -12.147084 4.446073 -43.921489 -6.997744 -4.164754 -13.024523 -24.302909 3.690010 0.000000 0.000000 0.000000 29.155695 5.596435 3.039312 49.445219 7.807267 -4.047975 12.423688 24.941775 3.705507 0.000000 0.000000 0.000000 
0.027745 0.923935 0.009487 0.841916 -7.891598 -7.104663 3.058584 0.319011 3.349051 -6.715354 1.123224 6.585241 5.818040 12.505523 0.729316 0.000000 0.000000 0.000000 -9.916201 0.285349 2.911903 3.422853 -0.093671 10.508647 -5.632815 -13.753016 0.814845 0.000000 0.000000 0.000000 1.958285 -0.761809 17.567884 -5.540010 1.877034 -23.549564 -1.744077 8.042465 22.071313 9.073498 -1.927423 -33.156413 0.000000 0.000000 0.000000 -23.077134 -12.421350 4.640275 -44.000928 -6.523307 -4.356038 -13.605314 -23.829075 3.735846 0.000000 0.000000 0.000000 29.543124 5.779315 3.085737 48.944983 8.186162 -3.852712 12.833935 24.340492 3.668429 0.000000 0.000000 0.000000 
0.035460 0.924387 0.011111 0.683884 -7.972040 -6.638448 2.801308 0.318969 3.367482 -6.613931 1.085364 6.106104 5.611078 12.068044 0.570174 0.000000 0.000000 0.000000 -10.008370 0.303026 2.173263 4.118728 -0.218742 10.439561 -6.210002 -15.115989 1.104292 0.000000 0.000000 0.000000 1.572479 -0.701102 17.246908 -5.258050 1.796818 -23.562085 -1.617994 8.009664 21.907185 9.210609 -1.968338 -33.354488 0.000000 0.000000 0.000000 -22.982312 -11.835629 4.324516 -44.339557 -6.606346 -4.347909 -13.391469 -23.800292 3.693180 0.000000 0.000000 0.000000 29.329920 5.497606 2.857111 49.395584 8.163017 -3.846326 12.579710 24.241014 3.603785 0.000000 0.000000 0.000000 
0.041988 0.924391 0.012092 0.705812 -8.216503 -6.949618 2.500346 0.367388 3.877659 -6.605688 1.082043 5.887615 5.292862 11.391288 0.294758 0.000000 0.000000 0.000000 -10.284695 0.319020 2.091731 3.848614 -0.159080 10.681315 -6.230739 -15.374662 2.077941 0.000000 0.000000 0.000000 1.096300 -0.643888 18.001322 -5.254756 1.793101 -23.776928 -1.636393 7.892904 21.327349 9.664120 -2.178074 -33.604490 0.000000 0.000000 0.000000 -23.186125 -11.970163 4.454129 -43.521391 -5.925985 -4.476778 -13.644546 -23.588820 3.707299 0.000000 0.000000 0.000000 29.910234 5.865651 2.990208 49.220319 8.020729 -3.829861 12.613108 23.927670 3.536486 0.000000 0.000000 0.000000 
0.047404 0.924151 0.012648 0.470628 -8.415659 -7.074166 2.560283 0.404583 4.306704 -6.812685 1.126656 5.901336 5.425713 11.678976 0.280539 0.000000 0.000000 0.000000 -10.282732 0.320528 2.056354 4.115426 -0.209381 10.439590 -6.235829 -15.411346 2.213170 0.000000 0.000000 0.000000 1.217974 -0.665173 18.360285 -5.390240 1.826853 -23.735171 -1.544449 7.943499 21.245251 9.934628 -2.299969 -33.722869 0.000000 0.000000 0.000000 -23.076572 -12.350425 4.677796 -43.360428 -5.737391 -4.518384 -13.604227 -23.741554 3.719936 0.000000 0.000000 0.000000 30.164794 5.960536 3.034122 49.257542 7.858708 -3.884764 12.282879 23.947393 3.468708 0.000000 0.000000 0.000000 
0.051887 0.924059 0.012521 0.484181 -8.506457 -7.520287 2.352468 0.467165 4.964133 -7.251912 1.204047 5.648983 5.766417 12.431000 0.572129 0.000000 0.000000 0.000000 -10.352220 0.318116 2.454928 4.199053 -0.223079 10.423488 -6.374135 -15.669230 2.073076 0.000000 0.000000 0.000000 1.112755 -0.656993 18.911870 -5.744927 1.919095 -23.895074 -1.653475 7.930404 21.490763 10.492428 -2.690275 -33.182945 0.000000 0.000000 0.000000 -22.575851 -12.484639 4.771635 -43.313087 -5.499516 -4.635005 -13.699754 -23.550992 3.707757 0.000000 0.000000 0.000000 30.499323 5.646131 2.814455 49.352037 7.688848 -3.988184 12.695858 23.984810 3.563856 0.000000 0.000000 0.000000 
0.054805 0.924185 0.012050 0.397275 -8.444239 -7.580421 2.157924 0.511025 5.430531 -7.524348 1.224940 5.004139 6.423857 13.833676 1.145718 0.000000 0.000000 0.000000 -10.486047 0.321046 2.427970 4.688636 -0.313913 10.296422 -6.538926 -16.062740 2.242380 0.000000 0.000000 0.000000 1.442939 -0.719216 19.360041 -6.039724 1.990582 -24.449223 -1.771317 7.716435 21.821686 10.629115 -2.855303 -32.879082 0.000000 0.000000 0.000000 -22.164288 -12.544126 4.859217 -43.274571 -5.114816 -4.814905 -14.147630 -23.664229 3.824711 0.000000 0.000000 0.000000 30.434081 5.201420 2.466434 49.632239 7.373787 -4.148883 12.767969 24.214730 3.625065 0.000000 0.000000 0.000000 
0.056416 0.925004 0.011543 0.492868 -8.486892 -8.015764 1.896648 0.629506 6.628795 -7.766940 1.240984 4.344994 6.690686 14.425397 1.633826 0.000000 0.000000 0.000000 -10.514039 0.315715 2.837260 4.188452 -0.236990 9.803151 -6.322599 -15.703204 2.728181 0.000000 0.000000 0.000000 1.411184 -0.723476 19.978916 -6.124912 2.012930 -24.592739 -1.995123 7.583166 21.903774 11.176289 -3.164857 -32.910325 0.000000 0.000000 0.000000 -21.971634 -12.366469 4.796643 -43.202257 -4.848379 -4.930290 -14.542426 -23.155847 3.821355 0.000000 0.000000 0.000000 30.638283 4.854440 2.179018 49.349776 7.140306 -4.234970 13.573406 23.997633 3.747287 0.000000 0.000000 0.000000 
0.056878 0.925562 0.010758 0.574760 -9.152318 -7.989535 1.531141 0.679037 6.925271 -7.588955 1.213274 4.069215 6.699486 14.483400 1.854000 0.000000 0.000000 0.000000 -10.644406 0.346744 2.392880 4.145957 -0.215980 9.797077 -6.134880 -15.362302 3.036630 0.000000 0.000000 0.000000 1.571850 -0.727360 20.160523 -6.214945 2.023266 -24.653451 -1.915626 7.776302 22.130954 11.323031 -3.211432 -33.316385 0.000000 0.000000 0.000000 -21.937235 -12.592138 5.002331 -43.327846 -4.897692 -4.970848 -14.296431 -22.840967 3.725278 0.000000 0.000000 0.000000 30.551552 4.773401 2.047570 49.425856 7.115529 -4.247094 13.090712 23.950134 3.636711 0.000000 0.000000 0.000000 
0.056477 0.926781 0.009768 0.817877 -9.503155 -8.323224 1.229802 0.748540 7.442009 -7.271330 1.153387 3.796943 6.258145 13.623894 2.097320 0.000000 0.000000 0.000000 -10.654886 0.351605 2.187124 4.161641 -0.201778 10.160319 -6.203330 -15.531080 3.185413 0.000000 0.000000 0.000000 1.473194 -0.703085 20.668230 -6.379356 2.064610 -24.507982 -1.955362 7.620627 22.261597 11.561016 -3.419336 -33.220550 0.000000 0.000000 0.000000 -22.198066 -12.585235 5.121593 -42.968990 -5.260672 -4.861052 -14.127595 -22.433050 3.628536 0.000000 0.000000 0.000000 31.074042 4.565429 1.748633 48.835315 6.990124 -4.241016 13.437713 24.217201 3.738009 0.000000 0.000000 0.000000 
0.055065 0.927411 0.008603 0.818534 -9.990789 -8.515141 1.277602 0.773831 7.630711 -7.364890 1.181602 3.785226 6.288480 13.714915 2.422792 0.000000 0.000000 0.000000 -10.655555 0.361868 1.855160 4.149627 -0.174746 10.685689 -6.144302 -15.482723 3.529454 0.000000 0.000000 0.000000 1.493165 -0.692577 21.039506 -6.237570 2.017296 -24.457605 -2.009088 7.415326 22.510666 11.626032 -3.593675 -32.953506 0.000000 0.000000 0.000000 -22.396281 -12.752379 5.382408 -42.714117 -5.246740 -4.905284 -14.111679 -22.472813 3.641546 0.000000 0.000000 0.000000 31.200121 4.664767 1.620427 48.541122 7.277347 -4.085163 13.216202 24.507476 3.726211 0.000000 0.000000 0.000000 
0.052614 0.927400 0.007433 0.909191 -10.677573 -8.805216 1.290106 0.838547 8.141835 -7.388338 1.186211 3.416618 6.557666 14.296839 2.879169 0.000000 0.000000 0.000000 -10.522981 0.371706 2.056916 4.001851 -0.128795 10.862803 -6.045566 -15.177103 3.187050 0.000000 0.000000 0.000000 1.867863 -0.734590 21.830372 -6.429599 2.052965 -24.777448 -2.122588 7.177312 22.692761 11.992187 -3.820379 -33.341898 0.000000 0.000000 0.000000 -22.276359 -12.886928 5.646769 -42.710494 -5.652671 -4.850730 -14.208007 -22.091095 3.608778 0.000000 0.000000 0.000000 31.469272 4.303015 1.117592 48.378153 7.808719 -3.824660 13.554170 24.453283 3.768711 0.000000 0.000000 0.000000 
0.049028 0.927641 0.006488 1.078673 -11.449538 -8.924901 1.227271 0.876056 8.342314 -7.292568 1.185714 3.377806 6.677222 14.560605 2.977824 0.000000 0.000000 0.000000 -10.244975 0.380467 2.244748 3.876446 -0.095692 10.695521 -6.043817 -15.008587 2.663896 0.000000 0.000000 0.000000 2.190460 -0.753561 21.943729 -6.278028 1.997957 -24.885504 -2.135540 6.887015 22.676345 11.888762 -3.814667 -33.680293 0.000000 0.000000 0.000000 -22.555557 -12.939898 5.924322 -42.855848 -5.473657 -4.990760 -14.169371 -22.169218 3.634555 0.000000 0.000000 0.000000 31.761533 4.285688 0.763817 48.158671 7.925245 -3.668075 13.545514 24.523615 3.747628 0.000000 0.000000 0.000000 
0.044912 0.927583 0.005772 1.270839 -12.400333 -9.154666 1.472521 0.944085 8.893964 -7.213532 1.181316 3.118649 6.556030 14.349991 3.050964 0.000000 0.000000 0.000000 -9.979265 0.390390 2.441845 3.463409 -0.011241 10.558150 -5.672521 -13.903559 1.704082 0.000000 0.000000 0.000000 2.264079 -0.724344 22.608885 -5.987714 1.905822 -24.943175 -2.057807 6.595834 22.288453 12.119229 -3.954423 -34.055269 0.000000 0.000000 0.000000 -22.521789 -12.818548 6.083167 -43.056821 -5.851637 -4.922186 -14.231479 -21.876035 3.614582 0.000000 0.000000 0.000000 31.686788 4.214938 0.336087 47.813856 7.909421 -3.503413 14.115849 24.610081 3.837063 0.000000 0.000000 0.000000 
0.040144 0.927626 0.005367 1.195830 -13.064723 -9.151550 1.826655 0.909510 8.598151 -7.096479 1.205516 3.803846 6.544402 14.332045 2.813488 0.000000 0.000000 0.000000 -9.450465 0.371775 2.379916 3.358576 0.022769 10.641078 -5.134119 -12.439375 0.908083 0.000000 0.000000 0.000000 2.447943 -0.724253 22.786652 -5.673710 1.817237 -24.867731 -2.123007 6.095603 21.963039 11.907618 -3.977532 -33.871470 0.000000 0.000000 0.000000 -22.418920 -12.524518 6.152302 -43.194847 -6.102467 -4.885838 -14.540915 -21.361366 3.602395 0.000000 0.000000 0.000000 31.592851 4.339836 0.026290 47.807553 8.217258 -3.221408 14.419841 24.297532 3.798699 0.000000 0.000000 0.000000 
0.034488 0.927663 0.004917 1.461945 -14.190725 -9.814908 1.871184 1.036186 9.519770 -6.896762 1.186911 3.661786 6.850383 14.991275 3.341081 0.000000 0.000000 0.000000 -8.873568 0.351345 3.222830 3.044687 0.077638 10.260063 -4.943462 -11.661739 0.172107 0.000000 0.000000 0.000000 2.429452 -0.655551 23.657186 -5.399659 1.729876 -24.722417 -2.255313 5.758857 21.416372 12.272377 -4.269989 -33.847196 0.000000 0.000000 0.000000 -22.414766 -12.296506 6.264682 -43.044346 -6.325374 -4.829055 -15.051841 -21.197438 3.686236 0.000000 0.000000 0.000000 31.876637 4.413079 -0.387911 47.105863 8.267374 -2.979068 14.969102 23.842529 3.768854 0.000000 0.000000 0.000000 
